<?xml version="1.0" standalone="no"?>
<!DOCTYPE svg PUBLIC "-//W3C//DTD SVG 20010904//EN"
 "http://www.w3.org/TR/2001/REC-SVG-20010904/DTD/svg10.dtd">
<svg version="1.0" xmlns="http://www.w3.org/2000/svg"
 width="300.000000pt" height="300.000000pt" viewBox="0 0 300.000000 300.000000"
 preserveAspectRatio="xMidYMid meet">
<circle cx="150" cy="150" r="150" fill="white" />
<g transform="translate(0.000000,300.000000) scale(0.100000,-0.100000)"
fill="red" stroke="none">
<path d="M1330 2990 c-209 -36 -345 -77 -483 -146 -473 -236 -783 -686 -829
-1201 -45 -512 158 -987 557 -1305 288 -230 621 -339 990 -325 233 9 406 55
625 168 344 178 603 477 725 839 82 242 103 479 64 711 -56 332 -189 590 -423
825 -223 222 -482 360 -786 419 -99 20 -361 28 -440 15z m147 -142 l32 -63 0
63 c1 48 4 62 16 62 12 0 15 -18 15 -105 0 -126 -13 -137 -59 -47 l-30 57 -1
-57 c0 -45 -3 -58 -15 -58 -12 0 -15 15 -16 73 0 39 -2 81 -5 92 -2 11 -2 26
1 33 10 27 32 9 62 -50z m197 43 c3 -5 14 -52 24 -105 18 -93 18 -96 1 -96
-11 0 -21 10 -25 25 -5 20 -13 25 -36 25 -21 0 -31 -6 -35 -20 -3 -12 -14 -20
-25 -20 -23 0 -24 -7 28 115 33 77 54 100 68 76z m-317 -79 c49 -118 48 -112
25 -112 -12 0 -23 9 -27 20 -9 28 -65 24 -65 -5 0 -15 -28 -40 -36 -32 -4 3 2
51 11 106 16 90 20 101 39 101 17 0 28 -16 53 -78z m-150 -27 c26 -93 28 -115
9 -115 -7 0 -20 23 -29 53 l-16 52 4 -56 c4 -43 1 -58 -9 -62 -18 -7 -31 8
-51 57 -22 51 -28 41 -10 -17 9 -31 10 -49 4 -53 -17 -10 -27 7 -48 93 -26
101 -26 103 2 103 18 0 29 -12 50 -52 l27 -53 -2 56 c-2 62 6 82 30 77 11 -2
24 -29 39 -83z m676 52 c17 -22 19 -29 8 -40 -10 -10 -16 -8 -28 11 -19 28
-59 29 -73 2 -28 -52 8 -131 45 -100 15 12 15 14 1 22 -39 22 -6 49 38 32 21
-8 10 -63 -16 -86 -47 -41 -118 0 -118 67 0 45 22 100 47 114 30 18 74 9 96
-22z m154 -33 c18 -8 33 -18 33 -24 0 -18 -22 -22 -52 -9 -25 10 -31 10 -39
-2 -13 -21 -12 -24 26 -38 19 -7 35 -17 35 -22 0 -16 -25 -20 -55 -9 -22 8
-30 8 -37 -2 -15 -24 -8 -36 27 -48 24 -8 35 -18 35 -31 0 -24 -13 -23 -71 4
l-47 22 35 93 c39 101 33 98 110 66z m-1100 -40 c2 -6 -10 -17 -27 -24 -53
-22 -28 -55 29 -39 27 7 23 -27 -4 -39 -25 -12 -25 -13 -10 -43 16 -30 14 -59
-3 -59 -9 0 -98 177 -91 184 10 10 75 34 88 33 8 -1 16 -7 18 -13z m1220 -20
c3 -9 -1 -39 -10 -68 l-16 -51 43 48 c39 43 44 46 62 33 18 -14 18 -16 -20
-88 -45 -85 -60 -103 -75 -93 -8 4 -1 25 20 63 l32 57 -46 -50 c-56 -62 -75
-55 -52 20 8 27 13 50 12 52 -2 1 -13 -18 -26 -43 -21 -40 -51 -60 -51 -34 0
9 44 94 77 148 16 26 41 29 50 6z m-1345 -74 c32 -25 60 -93 52 -126 -9 -37
-58 -59 -95 -43 -34 14 -79 83 -79 122 0 59 72 87 122 47z m1539 -41 c38 -30
51 -59 27 -59 -7 0 -24 9 -38 20 -30 24 -36 24 -44 4 -4 -9 5 -24 22 -39 21
-18 24 -26 15 -36 -9 -9 -18 -7 -41 9 -22 16 -32 18 -40 10 -18 -18 -15 -29
18 -57 21 -19 28 -30 21 -40 -7 -11 -18 -7 -55 19 -25 19 -46 37 -46 42 0 10
110 158 117 158 3 0 23 -14 44 -31z m-576 -63 c123 -32 276 -106 381 -184 537
-400 595 -1179 123 -1651 -140 -139 -304 -235 -496 -289 -92 -25 -110 -27
-288 -26 -177 0 -196 2 -280 27 -107 33 -251 100 -335 157 -184 125 -342 335
-416 554 -76 222 -72 511 9 726 142 378 473 648 872 710 107 16 318 5 430 -24z
m672 -17 c8 -8 5 -28 -8 -72 l-18 -60 43 42 c27 27 46 39 50 32 8 -12 -6 -31
-77 -111 -68 -76 -84 -46 -41 76 4 12 -9 4 -35 -21 -26 -25 -44 -36 -51 -29
-6 6 13 35 53 81 34 39 64 72 68 72 3 1 10 -4 16 -10z m-1869 -95 l50 -56 31
23 c25 18 34 20 44 10 10 -10 4 -19 -28 -47 -22 -18 -42 -34 -45 -34 -13 0
-131 141 -125 150 11 18 23 11 73 -46z m2020 -54 c17 -21 32 -43 32 -49 0 -19
-23 -24 -36 -6 -12 16 -18 13 -72 -34 -32 -28 -64 -51 -70 -51 -26 0 -9 27 45
76 50 44 56 53 45 67 -15 17 -8 37 11 37 7 0 27 -18 45 -40z m-2092 14 c74
-35 96 -117 43 -157 -23 -17 -31 -18 -62 -8 -20 7 -50 28 -67 47 -38 44 -40
85 -4 113 32 25 46 26 90 5z m-96 -149 c84 -43 93 -131 17 -159 -30 -10 -104
28 -127 66 -25 41 -25 49 1 82 24 30 64 34 109 11z m2318 -47 c28 -28 -8 -86
-47 -75 -12 3 -22 -1 -25 -9 -3 -8 -1 -14 4 -14 18 0 10 -29 -9 -35 -11 -3
-22 -12 -25 -20 -6 -18 -36 -20 -36 -4 0 7 -11 22 -25 35 -32 29 -32 54 0 84
18 17 31 21 53 17 21 -4 31 -1 40 14 14 21 52 25 70 7z m-2401 -125 c43 -21
80 -39 82 -40 2 -1 1 -9 -3 -18 -5 -14 -9 -14 -43 0 -35 15 -39 15 -50 -1 -19
-26 -16 -32 22 -48 19 -8 35 -22 35 -30 0 -22 -8 -21 -104 23 -65 30 -84 44
-80 55 7 19 12 19 44 1 33 -19 35 -19 48 10 10 23 9 26 -21 41 -41 21 -40 21
-32 33 10 16 18 14 102 -26z m2506 -100 c9 -27 17 -54 17 -60 0 -19 -27 -16
-38 4 -9 15 -16 14 -82 -10 -40 -15 -77 -24 -82 -21 -19 12 1 28 68 54 52 19
69 31 70 46 2 31 3 34 17 34 7 0 21 -21 30 -47z m-2613 -58 c0 -8 -6 -15 -14
-15 -7 0 -19 -7 -26 -15 -9 -11 -7 -19 14 -40 32 -32 98 -33 104 -1 2 10 -2
22 -8 26 -7 5 -10 16 -6 25 6 16 9 16 29 3 51 -34 21 -118 -42 -118 -94 0
-166 84 -115 134 20 21 64 21 64 1z m2665 -112 c10 -44 10 -53 -3 -58 -19 -7
-18 -7 -29 35 -7 25 -15 35 -29 35 -15 0 -18 -6 -15 -25 7 -48 6 -54 -10 -58
-12 -2 -18 7 -23 32 -6 30 -11 36 -32 36 -24 0 -25 -2 -19 -44 5 -29 3 -46 -5
-51 -16 -10 -21 -3 -35 59 l-13 55 82 20 c114 27 117 26 131 -36z m-2715 -53
c0 -11 -7 -20 -15 -20 -8 0 -15 -9 -15 -19 0 -35 19 -33 40 2 24 40 53 51 89
34 59 -28 45 -117 -19 -117 -36 0 -40 21 -8 35 28 12 35 43 13 52 -11 4 -21 0
-27 -12 -30 -53 -75 -69 -110 -38 -22 20 -23 51 -2 81 19 28 54 30 54 2z
m2725 -85 c31 -30 31 -47 0 -82 -21 -23 -26 -26 -34 -13 -7 10 -5 20 6 32 33
37 -13 67 -78 51 -41 -11 -54 -51 -20 -60 23 -6 25 -11 12 -32 -7 -11 -13 -11
-32 -1 -31 17 -39 29 -39 61 0 45 37 67 113 68 38 1 53 -4 72 -24z m-2609
-136 c14 -23 -15 -29 -109 -23 -72 5 -97 11 -97 20 0 18 195 20 206 3z m2632
-31 c3 -15 -4 -18 -37 -18 -37 0 -41 -2 -41 -25 0 -21 6 -26 40 -31 25 -4 40
-12 40 -21 0 -11 -20 -13 -102 -11 -89 3 -103 5 -106 21 -3 14 4 17 42 17 44
0 46 1 46 30 0 28 -2 30 -40 30 -29 0 -40 4 -40 15 0 13 15 15 97 13 84 -3 98
-6 101 -20z m-2628 -43 c0 -9 -9 -15 -22 -15 -47 0 -69 -12 -66 -34 2 -17 12
-22 47 -26 25 -3 46 -10 48 -17 5 -13 -24 -20 -130 -29 -74 -6 -79 -5 -75 12
2 14 13 20 41 22 39 3 40 4 31 39 -5 18 -13 22 -43 20 -26 -1 -36 2 -36 13 0
16 51 25 153 28 40 2 52 -1 52 -13z m2545 -108 c58 -10 70 -16 70 -32 0 -15
-12 -22 -58 -33 -59 -15 -62 -32 -6 -32 31 0 67 -24 51 -34 -10 -6 -191 20
-200 28 -12 13 19 36 71 51 l62 18 -57 10 c-38 6 -58 14 -58 23 0 17 30 17
125 1z m-2535 -53 c20 -23 16 -75 -5 -90 -40 -29 -61 -8 -28 28 15 17 15 20 1
34 -21 21 -34 12 -42 -30 -8 -40 -27 -58 -61 -58 -38 0 -56 20 -53 60 3 40 30
64 49 45 10 -10 9 -16 -3 -30 -17 -20 -13 -43 7 -43 7 0 16 16 19 35 4 19 14
41 22 50 20 20 78 19 94 -1z m2492 -104 c47 -14 81 -55 73 -90 -12 -52 -75
-75 -139 -50 -67 25 -87 92 -40 129 30 23 52 26 106 11z m-2459 -24 c3 -7 -8
-26 -24 -42 -16 -15 -29 -36 -29 -45 0 -17 3 -17 39 -4 34 12 40 12 45 0 7
-18 2 -21 -100 -55 l-85 -29 -10 27 c-6 15 -13 41 -16 59 -5 28 -2 33 27 48
25 13 38 14 55 7 19 -9 27 -6 51 19 31 33 39 35 47 15z m2389 -152 c97 -43 92
-39 85 -58 -5 -13 -18 -10 -82 19 l-76 34 -15 -34 c-15 -37 -31 -45 -40 -21
-5 13 30 96 41 96 2 0 41 -16 87 -36z m-2338 9 c5 -11 1 -22 -10 -30 -25 -18
-4 -63 30 -63 24 0 43 -16 33 -27 -3 -3 -49 -12 -102 -21 -84 -15 -97 -15
-105 -2 -7 11 8 33 63 88 39 39 75 72 78 72 4 0 10 -8 13 -17z m2253 -124 c61
-23 100 -80 83 -123 -21 -56 -95 -58 -155 -4 -42 36 -48 85 -15 118 22 22 46
25 87 9z m-2159 -41 c17 -17 15 -54 -4 -72 -21 -21 -36 -11 -28 20 9 35 -10
31 -80 -15 -58 -39 -76 -43 -76 -18 0 16 129 97 155 97 12 0 26 -5 33 -12z
m48 -73 c4 -8 1 -22 -6 -29 -9 -12 -8 -20 5 -40 14 -20 21 -23 40 -16 18 7 28
3 50 -20 25 -26 26 -31 15 -65 -6 -20 -9 -43 -6 -52 6 -14 12 -11 41 17 30 29
35 31 41 16 5 -13 -11 -36 -62 -87 l-68 -69 -38 37 c-21 20 -38 42 -38 49 0
22 42 64 64 64 19 0 24 8 33 44 l10 44 -51 -20 c-28 -10 -71 -28 -95 -39 -45
-20 -61 -18 -61 7 0 17 101 173 113 174 4 0 10 -7 13 -15z m2036 -46 c17 -12
37 -37 44 -56 13 -29 12 -37 -1 -62 -16 -33 -44 -46 -76 -36 -25 8 -20 29 9
33 51 8 52 57 1 92 -39 29 -73 23 -77 -12 -4 -30 6 -36 26 -16 9 9 15 9 23 1
8 -8 6 -18 -6 -37 -22 -33 -27 -32 -66 2 -31 27 -31 28 -16 64 26 62 75 72
139 27z m-94 -184 c30 -10 51 -22 49 -28 -4 -13 -38 -14 -74 -2 -23 7 -23 7
-8 -29 16 -38 13 -56 -9 -56 -8 0 -20 25 -30 58 -10 37 -27 69 -46 87 -23 22
-27 31 -18 42 9 11 18 8 47 -20 20 -19 60 -42 89 -52z m-1704 -76 c31 -24 34
-59 6 -84 -60 -54 -138 27 -80 85 25 25 41 25 74 -1z m1566 1 c58 -58 -20
-139 -80 -85 -32 29 -25 70 15 93 29 16 42 15 65 -8z m-1351 -107 c5 -10 15
-46 21 -80 7 -35 16 -61 20 -58 3 2 13 29 20 60 12 51 30 69 45 45 5 -8 -40
-177 -50 -188 -2 -2 -11 1 -21 6 -23 13 -78 232 -58 232 7 0 18 -8 23 -17z
m1081 -87 c0 -83 -3 -105 -15 -110 -13 -5 -15 10 -15 98 0 56 3 106 7 109 18
19 23 -2 23 -97z m-79 64 c10 -6 19 -17 19 -26 0 -20 -27 -29 -44 -15 -11 9
-18 8 -30 -4 -22 -23 -11 -35 29 -35 45 0 61 -27 45 -76 -8 -24 -22 -40 -45
-51 -39 -19 -62 -12 -74 19 -11 30 15 48 33 23 10 -14 16 -15 34 -6 30 16 27
39 -5 46 -43 9 -58 20 -61 44 -4 28 22 69 51 81 29 11 26 11 48 0z m-819 -32
c8 -7 27 -57 42 -110 31 -115 30 -108 10 -108 -8 0 -20 13 -25 29 -13 36 -65
49 -75 19 -5 -18 -35 -22 -35 -5 -1 16 54 187 61 187 3 0 13 -6 22 -12z m205
-45 c18 -23 16 -63 -2 -83 -14 -16 -14 -21 1 -54 27 -56 25 -59 69 97 12 42
21 57 34 57 14 0 25 -23 49 -101 17 -56 29 -106 26 -110 -10 -16 -24 -9 -34
16 -12 32 -65 36 -75 5 -5 -15 -15 -20 -44 -20 -34 0 -39 4 -59 45 -28 58 -52
60 -52 5 0 -29 -4 -40 -15 -40 -12 0 -15 19 -15 109 l0 108 52 -8 c31 -5 58
-16 65 -26z m468 -50 c34 -110 33 -106 13 -110 -10 -3 -19 4 -23 16 -11 34
-61 24 -76 -15 -4 -13 -15 -24 -24 -24 -18 0 -18 7 -6 46 6 16 19 62 31 102
16 57 25 72 40 72 15 0 24 -18 45 -87z m-145 -33 c0 -131 -13 -143 -59 -52
l-30 57 -1 -58 c0 -50 -3 -58 -17 -55 -18 3 -18 4 -14 151 2 78 23 77 61 -5
l29 -63 0 61 c1 59 6 74 23 74 4 0 8 -49 8 -110z"/>
<path d="M1640 2811 c-13 -26 -13 -31 5 -31 9 0 15 9 15 25 0 30 -6 32 -20 6z"/>
<path d="M1300 2795 c0 -16 6 -25 15 -25 16 0 19 9 9 34 -9 25 -24 19 -24 -9z"/>
<path d="M742 2648 c-19 -19 -14 -54 14 -87 29 -34 45 -38 64 -16 16 20 5 61
-25 91 -27 27 -36 29 -53 12z"/>
<path d="M1505 2400 c8 -36 -10 -41 -19 -5 -4 14 -10 25 -15 25 -6 0 -6 -12
-1 -30 11 -38 -4 -39 -25 -2 -16 27 -16 10 0 -33 8 -19 6 -18 -17 3 -31 28
-44 28 -24 0 22 -31 20 -45 -2 -25 -10 10 -25 17 -33 17 -9 -1 -6 -8 10 -21
27 -22 22 -36 -7 -20 -35 19 -38 11 -7 -15 l30 -26 -32 7 c-40 8 -43 -1 -5
-17 l27 -12 -33 -4 c-35 -4 -35 -22 1 -22 24 0 13 -16 -18 -23 -15 -4 -13 -5
8 -6 15 0 27 -5 27 -9 0 -5 -12 -13 -27 -20 l-28 -12 33 5 c36 5 43 -9 11 -25
-11 -7 -18 -14 -16 -17 3 -2 15 1 27 7 32 17 39 2 10 -20 -20 -15 -21 -20 -8
-20 9 0 20 5 23 10 3 6 11 10 17 10 6 0 3 -11 -6 -25 -23 -36 -20 -42 9 -15
20 19 25 20 25 7 0 -9 -4 -19 -10 -22 -13 -8 -13 -25 -1 -25 5 0 13 9 16 20
11 33 27 23 20 -12 l-6 -33 16 28 c21 36 35 34 36 -5 l1 -33 12 33 c12 34 26
34 26 0 0 -10 4 -18 9 -18 4 0 6 11 3 25 -6 34 11 32 26 -2 l12 -28 -5 33 c-5
37 4 41 23 11 17 -27 27 -18 12 11 -17 31 -4 37 21 9 20 -24 21 -18 2 27 -5
15 -3 15 20 -1 30 -19 35 -11 10 17 -13 15 -14 18 -2 18 8 0 20 -5 26 -11 8
-8 13 -8 17 0 4 6 3 11 -1 11 -5 0 -18 7 -29 16 -18 15 -17 15 14 10 39 -7 42
6 5 21 l-28 11 33 1 c37 1 44 21 7 21 -14 0 -25 5 -25 10 0 6 11 10 25 10 14
0 25 5 25 11 0 7 -10 9 -24 5 -14 -3 -27 -2 -30 3 -3 5 5 12 19 15 36 9 31 23
-7 19 l-33 -4 30 17 c33 19 19 32 -14 14 -27 -14 -27 1 -1 25 11 10 18 20 15
23 -3 3 -14 -3 -25 -13 -26 -24 -39 -11 -15 15 10 11 15 23 11 27 -3 4 -13 -3
-22 -15 -23 -33 -37 -27 -19 8 18 35 5 40 -19 8 -16 -23 -16 -23 -10 10 3 19
1 32 -5 32 -5 0 -11 -10 -13 -22 -5 -35 -28 -34 -28 1 0 17 -4 31 -10 31 -5 0
-10 -13 -10 -30 0 -16 -4 -30 -10 -30 -5 0 -10 14 -10 30 0 17 -5 30 -11 30
-7 0 -8 -11 -4 -30z m103 -77 c67 -42 81 -146 27 -203 -61 -64 -145 -61 -204
5 -26 30 -31 44 -31 85 0 41 5 55 31 85 48 54 118 66 177 28z"/>
<path d="M1010 2206 c0 -9 -7 -12 -20 -9 -12 3 -20 0 -20 -7 0 -7 -8 -9 -20
-5 -12 4 -20 2 -20 -5 0 -7 -8 -9 -20 -5 -11 4 -20 2 -20 -4 0 -6 -7 -11 -15
-11 -10 0 -12 -6 -8 -17 6 -16 5 -17 -12 -3 -17 14 -18 13 -13 -7 4 -13 2 -26
-3 -29 -5 -3 -7 -10 -4 -15 4 -5 -1 -12 -9 -15 -9 -3 -13 -10 -10 -15 3 -5 0
-9 -5 -9 -6 0 -11 -7 -11 -15 0 -8 -5 -15 -11 -15 -5 0 -3 -10 5 -22 22 -31
19 -48 -3 -20 -11 12 -21 22 -24 22 -7 0 58 -187 72 -203 7 -9 18 -14 24 -11
7 2 13 -6 14 -18 1 -13 5 -36 8 -53 7 -33 -12 -60 -144 -201 -67 -72 -96 -87
-127 -66 -31 20 -24 51 46 192 42 86 70 155 70 174 0 66 -57 100 -122 73 -34
-14 -88 -69 -88 -89 0 -6 -8 -20 -17 -30 -15 -17 -15 -20 -3 -28 23 -15 67
-12 84 5 9 9 21 34 27 55 10 31 17 40 35 40 49 0 37 -42 -66 -228 -53 -98 -55
-149 -7 -197 22 -22 47 -36 73 -40 63 -11 64 -11 64 -58 0 -47 -29 -97 -55
-97 -28 0 -36 -36 -24 -110 11 -63 10 -72 -5 -83 -11 -8 -15 -23 -13 -46 4
-29 17 -45 78 -97 l74 -62 40 28 c107 73 236 120 330 120 71 0 95 -9 95 -33 0
-38 40 -104 79 -130 130 -86 342 -70 435 33 19 21 37 52 41 69 5 25 13 32 43
37 56 11 173 -10 244 -43 35 -16 91 -55 124 -86 l61 -56 82 84 c83 86 93 106
66 135 -14 15 -14 24 0 83 18 76 14 90 -30 115 -35 21 -47 54 -38 109 5 29 10
33 35 33 42 0 91 23 116 55 38 48 30 97 -38 233 -36 72 -60 131 -60 151 0 29
3 32 27 29 23 -2 29 -9 34 -40 10 -62 44 -87 92 -69 l25 10 -21 43 c-27 58
-63 95 -104 109 -68 22 -123 -30 -108 -103 4 -18 34 -90 67 -160 44 -95 57
-133 52 -152 -7 -28 -40 -42 -71 -31 -18 6 -111 110 -179 199 -34 45 -45 98
-23 112 6 3 8 15 6 26 -4 14 -1 18 12 13 20 -6 33 15 76 125 14 36 29 72 32
80 3 8 -6 4 -20 -9 -29 -27 -37 -19 -11 10 15 17 15 19 0 34 -9 9 -16 23 -16
31 0 8 -6 14 -13 14 -9 0 -13 12 -12 36 0 19 -3 38 -7 40 -4 3 -8 0 -8 -5 0
-6 -5 -11 -11 -11 -6 0 -9 7 -5 15 3 9 0 15 -8 15 -8 0 -16 6 -19 13 -3 9 -7
9 -20 -2 -15 -12 -17 -11 -17 10 0 19 -2 21 -10 9 -7 -12 -12 -12 -22 -2 -6 6
-20 12 -30 12 -10 0 -18 5 -18 11 0 8 -4 8 -14 0 -7 -6 -20 -9 -28 -6 -9 4
-18 -1 -22 -10 -3 -9 -11 -13 -17 -10 -6 4 -13 -2 -16 -14 -6 -24 -14 -26 -31
-9 -9 9 -12 6 -12 -14 0 -21 -5 -27 -27 -30 -20 -2 -27 -9 -28 -28 -1 -14 -6
-33 -10 -44 -7 -16 -5 -17 16 -12 l24 6 -22 -11 c-26 -14 -30 -29 -8 -29 20 0
19 -16 -1 -24 -14 -5 -14 -8 0 -28 18 -26 19 -37 7 -57 -8 -12 -16 -9 -46 17
-158 139 -409 147 -577 19 -37 -29 -48 -33 -52 -20 -11 26 -6 56 10 75 16 16
16 18 0 24 -20 8 -21 24 -1 24 22 0 18 15 -7 28 -21 10 -21 11 -3 9 14 -1 19
3 16 13 -2 8 -5 26 -6 40 -1 17 -9 26 -25 30 -15 4 -27 15 -30 30 -4 17 -8 21
-14 12 -11 -19 -26 -14 -26 8 0 11 -7 20 -15 20 -8 0 -15 5 -15 10 0 6 -11 10
-25 10 -14 0 -25 5 -25 10 0 6 -4 10 -10 10 -5 0 -10 -6 -10 -14z m86 -110
l47 -43 -17 -51 c-10 -29 -20 -52 -23 -52 -3 0 -3 23 0 50 4 29 2 50 -3 50
-10 0 -14 -27 -11 -71 3 -34 -20 -56 -65 -65 -44 -8 -78 14 -111 72 -13 22
-23 32 -23 22 0 -22 -16 -32 -38 -23 -16 6 -16 7 1 16 11 7 16 17 12 29 -3 11
0 20 10 24 9 3 14 10 10 16 -3 5 3 15 15 22 11 7 20 18 20 25 0 14 19 19 82
21 43 1 52 -2 94 -42z m1047 -6 c4 0 7 -6 7 -13 0 -7 9 -18 20 -25 12 -7 18
-17 15 -22 -3 -5 -1 -11 5 -15 5 -3 10 -17 10 -30 0 -13 6 -26 13 -28 9 -4 8
-8 -3 -16 -17 -12 -26 -5 -32 24 -3 16 -7 12 -24 -19 -30 -58 -62 -79 -108
-71 -46 9 -68 30 -66 64 4 51 0 81 -10 81 -6 0 -8 -22 -5 -57 5 -57 5 -57 -9
-27 -33 69 -31 81 14 121 49 45 71 52 125 42 22 -5 43 -8 48 -9z m-973 -96 c0
-8 -4 -12 -10 -9 -5 3 -10 13 -10 21 0 8 5 12 10 9 6 -3 10 -13 10 -21z m750
-21 c0 -5 -5 -15 -10 -23 -8 -12 -10 -11 -10 8 0 12 5 22 10 22 6 0 10 -3 10
-7z m-1035 -24 c12 -19 -5 -23 -22 -6 -16 16 -16 17 -1 17 9 0 20 -5 23 -11z
m265 -28 c-11 -40 -29 -71 -40 -71 -14 0 -12 12 5 34 8 11 15 29 15 41 0 24 9
37 21 30 4 -3 4 -18 -1 -34z m509 20 c33 -10 80 -30 104 -44 52 -31 140 -124
166 -176 141 -275 -24 -606 -329 -661 -190 -34 -391 67 -480 240 -70 138 -65
309 13 443 29 49 140 157 163 157 13 0 18 -12 15 -32 0 -5 3 -8 8 -8 5 0 14
-13 21 -30 7 -16 17 -30 22 -30 6 0 7 8 3 18 -4 9 -10 29 -13 44 -2 15 -8 25
-13 22 -5 -3 -9 4 -9 15 0 16 6 21 24 21 28 0 43 -15 24 -24 -7 -4 1 -4 19 -1
25 3 33 0 38 -15 8 -24 -1 -40 -21 -40 -17 0 -18 12 -2 28 8 8 8 12 1 12 -6 0
-16 -7 -23 -15 -19 -23 5 -48 31 -34 11 5 24 7 29 4 6 -3 10 2 10 12 0 11 5
24 12 31 9 9 8 12 -5 12 -20 0 -23 16 -4 24 6 3 -4 4 -24 1 -25 -4 -40 -1 -49
10 -10 12 -10 16 1 19 64 22 194 20 268 -3z m-665 -55 c25 -9 13 -20 -12 -12
-27 9 -72 45 -72 57 0 6 15 -1 33 -14 17 -13 41 -27 51 -31z m126 45 c0 -5 -9
-19 -20 -32 -21 -26 -27 -10 -8 21 13 21 28 27 28 11z m816 -43 c6 -18 14 -41
19 -50 4 -11 3 -18 -3 -18 -9 0 -42 70 -42 90 0 22 16 8 26 -22z m271 15 c-9
-9 -20 -13 -24 -9 -4 4 -1 11 7 16 25 16 35 11 17 -7z m-233 -19 c11 -28 6
-39 -9 -20 -8 11 -15 23 -15 28 0 14 18 9 24 -8z m181 -3 c-6 -11 -78 -51 -90
-51 -18 0 1 18 30 30 20 8 41 20 47 27 12 15 23 10 13 -6z m-1295 -16 c13 -14
28 -25 33 -25 6 0 0 12 -14 26 l-24 26 37 -22 c21 -12 36 -26 33 -31 -3 -4 10
-15 30 -23 35 -15 43 -34 29 -70 -11 -28 -26 -17 -19 13 6 28 3 31 -41 50 -53
24 -68 26 -58 10 4 -7 1 -10 -7 -7 -8 3 -15 14 -15 26 -1 12 -7 28 -14 37 -21
25 5 17 30 -10z m190 21 c0 -11 -19 -15 -25 -6 -3 5 1 10 9 10 9 0 16 -2 16
-4z m-370 -16 c53 -29 40 -92 -51 -245 -38 -64 -53 -100 -53 -127 -1 -68 58
-99 114 -60 26 17 123 119 196 206 l41 48 31 -16 c38 -20 62 -82 44 -118 -10
-21 -11 -20 -11 13 -1 19 -8 44 -16 55 -13 17 -14 14 -15 -40 0 -47 -3 -57
-15 -52 -11 4 -15 -2 -15 -25 0 -16 -9 -42 -19 -57 -10 -15 -22 -49 -25 -77
-8 -62 -27 -90 -96 -136 -51 -35 -100 -101 -100 -134 0 -8 -4 -15 -10 -15 -5
0 -10 20 -10 45 0 33 -4 45 -15 45 -24 0 -17 17 10 24 18 5 33 21 48 54 14 28
29 46 37 45 8 -1 27 -5 43 -9 36 -9 35 8 -3 24 -18 8 -30 21 -30 33 0 10 -9
24 -20 31 -11 7 -20 18 -20 25 0 18 -17 16 -28 -3 -12 -22 -73 -11 -107 19
-43 38 -42 73 6 162 100 189 100 188 97 230 -3 39 -4 40 -42 43 -29 3 -36 6
-25 13 19 12 36 11 59 -1z m349 -66 c3 -16 -1 -14 -24 9 -15 15 -32 27 -36 27
-5 0 -9 4 -9 10 0 17 65 -26 69 -46z m11 46 c8 -5 12 -11 9 -14 -3 -3 -14 1
-25 9 -21 16 -8 20 16 5z m128 -37 c-23 -25 -23 -25 -26 -3 -5 30 16 54 35 39
11 -10 10 -16 -9 -36z m872 37 c0 -5 -7 -10 -15 -10 -8 0 -15 5 -15 10 0 6 7
10 15 10 8 0 15 -4 15 -10z m144 -32 c-14 -16 -10 -15 19 6 35 27 54 23 22 -4
-8 -7 -12 -16 -9 -21 3 -5 2 -14 -2 -20 -5 -8 -8 -8 -13 0 -5 7 -22 5 -56 -8
-46 -18 -50 -22 -47 -50 3 -38 -15 -41 -24 -4 -9 34 6 57 40 61 19 3 26 8 22
18 -4 9 3 18 18 24 13 5 27 14 31 20 4 6 10 9 13 6 3 -3 -3 -16 -14 -28z
m-264 -26 c0 -25 -1 -25 -15 -6 -19 25 -19 45 0 38 8 -4 15 -18 15 -32z m520
28 c12 -8 9 -10 -12 -10 -80 0 -79 -46 4 -212 72 -144 79 -186 35 -224 -37
-31 -96 -42 -112 -20 -7 9 -18 16 -25 16 -7 0 -10 -3 -7 -7 4 -3 -2 -12 -13
-20 -11 -8 -20 -22 -20 -32 0 -12 -14 -25 -36 -36 -25 -11 -33 -20 -26 -27 7
-7 20 -5 41 5 33 17 43 11 56 -33 9 -32 44 -70 64 -70 12 0 10 -5 -8 -19 -17
-13 -22 -24 -17 -39 4 -12 3 -30 -3 -39 -9 -16 -10 -16 -11 -1 -1 45 -92 158
-128 158 -22 0 -59 76 -64 132 -3 34 -12 65 -21 76 -9 10 -17 33 -17 50 0 25
-3 30 -17 25 -14 -6 -15 -1 -10 38 9 68 -8 83 -26 23 -12 -36 -16 -42 -16 -23
-2 62 11 89 47 105 19 8 36 13 37 12 1 -2 33 -41 70 -88 135 -171 205 -220
248 -172 37 41 32 66 -33 195 -73 145 -86 205 -49 231 27 18 47 20 69 6z
m-395 -10 c-3 -5 -13 -10 -21 -10 -8 0 -12 5 -9 10 3 6 13 10 21 10 8 0 12 -4
9 -10z m50 -5 c-11 -8 -31 -25 -44 -37 -21 -20 -23 -21 -20 -3 2 10 18 26 34
36 37 21 58 24 30 4z m-1165 -30 c21 -25 1 -31 -22 -7 -18 18 -19 22 -6 22 8
0 21 -7 28 -15z m134 -10 c3 -8 1 -15 -4 -15 -6 0 -10 7 -10 15 0 8 2 15 4 15
2 0 6 -7 10 -15z m33 0 c8 -22 -6 -33 -17 -15 -13 20 -12 30 0 30 6 0 13 -7
17 -15z m893 -23 c0 -5 -7 -17 -15 -28 -14 -19 -14 -19 -15 2 0 11 3 24 7 27
9 10 23 9 23 -1z m180 0 c0 -10 -41 -35 -47 -28 -9 8 17 36 33 36 8 0 14 -3
14 -8z m-1112 -37 c16 -25 20 -43 16 -61 l-7 -26 -38 43 c-50 57 -50 67 1 78
3 0 15 -15 28 -34z m943 12 c-10 -9 -11 -8 -5 6 3 10 9 15 12 12 3 -3 0 -11
-7 -18z m60 -27 c18 0 8 -21 -30 -61 l-38 -41 -7 26 c-8 31 30 90 52 81 7 -3
18 -5 23 -5z m-1041 -220 c0 -5 8 -18 19 -29 10 -10 27 -44 37 -76 20 -67 81
-162 126 -200 17 -14 29 -27 27 -29 -2 -2 -22 0 -44 4 -22 4 -37 8 -32 9 19 3
-27 51 -50 51 -32 0 -80 25 -93 49 -5 11 -10 40 -10 64 0 31 -8 56 -26 83
l-26 38 26 23 c29 24 46 29 46 13z m1055 -50 l29 -30 -22 -22 c-25 -28 -42
-70 -42 -108 0 -16 -3 -36 -6 -45 -8 -19 -55 -45 -83 -45 -11 0 -33 -11 -49
-25 -21 -17 -42 -25 -68 -25 l-39 0 42 35 c48 41 107 126 128 186 8 22 26 50
40 61 14 11 25 26 25 34 0 22 13 17 45 -16z m-1136 -42 c0 -7 -4 -22 -8 -32
-10 -25 -22 -6 -14 22 6 23 23 31 22 10z m10 -55 c-7 -21 -14 -32 -17 -25 -4
14 18 75 25 68 3 -3 -1 -22 -8 -43z m1181 -9 c0 -14 -4 -22 -10 -19 -5 3 -10
17 -10 31 0 14 4 22 10 19 6 -3 10 -17 10 -31z m-20 -24 c7 -22 11 -43 8 -46
-3 -3 -13 15 -21 40 -9 26 -12 46 -8 46 4 0 14 -18 21 -40z m-1201 -41 c16
-16 21 -28 16 -46 -5 -21 -1 -26 35 -40 22 -9 40 -19 40 -23 0 -4 -27 -17 -61
-30 l-61 -22 -22 21 -23 21 -41 -30 c-23 -16 -46 -30 -51 -30 -8 0 -21 46 -21
76 0 16 45 58 103 96 52 33 57 33 86 7z m133 -61 c8 -3 8 -9 0 -24 -6 -10 -12
-14 -12 -7 0 6 -18 14 -40 18 -46 8 -55 17 -40 44 10 20 11 20 45 -4 20 -13
41 -25 47 -27z m1201 -8 c73 -55 85 -80 65 -129 l-13 -32 -40 30 c-47 35 -52
37 -77 14 -17 -15 -22 -14 -78 8 -33 13 -59 28 -57 34 2 5 19 15 38 21 25 9
34 18 35 35 1 41 3 46 27 57 32 15 28 17 100 -38z m-143 -15 c0 -15 -22 -25
-54 -25 -12 0 -27 -5 -34 -12 -9 -9 -13 -7 -18 6 -4 9 -5 18 -3 19 80 44 109
47 109 12z m-160 -25 c0 -5 -2 -10 -4 -10 -3 0 -8 5 -11 10 -3 6 -1 10 4 10 6
0 11 -4 11 -10z m-770 -20 c36 -6 88 -20 117 -32 l52 -21 -27 -49 c-15 -26
-31 -48 -35 -48 -4 0 4 20 19 45 14 25 21 45 15 45 -6 0 -21 -18 -33 -39 l-23
-39 -85 5 c-102 6 -183 -12 -279 -63 -36 -18 -65 -33 -66 -31 0 1 -13 19 -28
39 -36 49 -34 62 3 19 16 -19 33 -32 37 -28 3 4 -6 20 -21 36 -16 16 -25 34
-22 40 18 28 184 105 261 121 22 4 42 8 45 9 3 0 34 -4 70 -9z m787 -34 c28
-8 78 -26 110 -40 57 -26 183 -104 183 -113 0 -2 -16 -19 -35 -37 -38 -37 -48
-36 -13 1 30 32 13 43 -19 11 l-26 -26 -51 28 c-68 39 -174 62 -261 58 l-70
-3 -22 45 c-12 25 -22 50 -22 57 -2 31 136 43 226 19z m-1112 -5 c9 -16 -35
-35 -48 -22 -9 9 -8 14 3 21 19 12 37 13 45 1z m-152 -51 c5 0 6 11 3 25 -8
33 12 33 24 -1 11 -29 6 -44 -15 -44 -17 0 -45 39 -44 60 1 8 6 3 12 -12 6
-16 15 -28 20 -28z m657 -9 c-18 -36 -40 -61 -40 -46 0 12 45 85 53 85 4 0 -2
-18 -13 -39z m380 -2 c12 -22 19 -46 17 -52 -4 -12 -47 64 -47 83 0 19 10 10
30 -31z m-352 -14 c-12 -25 -26 -45 -31 -45 -5 0 -7 3 -5 8 25 52 43 82 50 82
4 0 -2 -20 -14 -45z m187 27 c37 3 41 1 63 -40 l24 -44 -130 4 c-72 2 -133 6
-137 10 -3 3 3 24 14 46 l20 39 53 -9 c29 -4 71 -7 93 -6z m133 -27 c12 -25
18 -45 14 -45 -4 0 -18 20 -30 45 -12 25 -18 45 -14 45 4 0 18 -20 30 -45z
m526 39 c19 -7 22 -34 4 -34 -22 0 -41 17 -34 29 8 13 9 13 30 5z m-559 -44
c24 -54 12 -63 -14 -11 -23 45 -25 51 -13 51 5 0 17 -18 27 -40z m709 13 c-6
-25 -29 -53 -43 -53 -24 1 -31 18 -20 43 16 35 29 34 30 0 l0 -28 16 33 c20
39 25 41 17 5z m-1700 -9 c24 -9 19 -24 -8 -24 -26 0 -40 12 -29 24 8 8 17 8
37 0z m119 -93 c10 -17 15 -31 10 -31 -9 0 -63 74 -63 86 0 12 34 -23 53 -55z
m1605 37 c-5 -15 -48 -24 -48 -10 0 14 12 22 33 22 10 0 17 -5 15 -12z m-1635
-52 c16 -23 17 -27 4 -17 -10 8 -28 28 -40 45 -16 23 -17 27 -4 17 10 -8 28
-28 40 -45z m550 46 c8 -11 -31 -54 -43 -47 -5 3 -10 17 -10 31 0 19 5 24 24
24 14 0 27 -3 29 -8z m17 -52 c-18 -23 -35 -39 -38 -36 -5 6 60 84 67 80 2 -2
-11 -21 -29 -44z m430 46 c0 -3 -5 -17 -10 -32 -10 -26 -11 -26 -25 -8 -21 28
-18 44 10 44 14 0 25 -2 25 -4z m-1020 -59 c0 -6 -11 0 -25 13 -14 13 -25 28
-25 33 0 6 11 0 25 -13 14 -13 25 -28 25 -33z m633 25 c-34 -53 -53 -76 -57
-71 -5 4 63 99 71 99 3 0 -3 -13 -14 -28z m260 -22 c46 -62 48 -78 2 -25 -43
51 -54 42 -15 -12 l30 -41 -37 -13 c-54 -18 -159 -16 -220 5 -29 10 -53 20
-53 22 0 3 17 30 38 59 l37 54 90 1 91 0 37 -50z m41 5 c15 -25 26 -48 23 -51
-5 -5 -67 75 -67 88 0 19 17 5 44 -37z m46 -20 c-1 -11 -27 20 -41 50 -6 11 1
7 15 -10 14 -16 26 -34 26 -40z m520 10 c-18 -19 -36 -32 -39 -30 -2 3 11 21
29 40 18 19 36 32 39 30 2 -3 -11 -21 -29 -40z m59 18 c-1 -10 -79 -78 -79
-70 0 11 62 77 71 77 5 0 9 -3 8 -7z m31 -21 c0 -16 -69 -74 -82 -70 -9 4 -1
17 25 42 37 35 57 45 57 28z"/>
<path d="M1027 2063 c-4 -3 -7 -21 -7 -40 0 -23 -5 -33 -15 -33 -8 0 -15 8
-15 19 0 26 -22 42 -40 31 -12 -8 -9 -10 10 -11 25 -1 25 -1 2 -7 -29 -9 -29
-27 1 -27 13 0 23 -8 25 -19 3 -14 0 -17 -17 -11 -16 5 -20 3 -15 -9 10 -25
71 -32 94 -11 23 21 27 44 5 25 -23 -19 -30 -8 -24 40 3 25 7 37 7 28 3 -24
18 -23 25 1 7 28 -17 44 -36 24z"/>
<path d="M1998 2024 c6 -3 10 -9 8 -13 -3 -4 -1 -13 4 -21 7 -12 11 -9 18 10
8 20 10 16 8 -27 -1 -45 -3 -50 -18 -42 -23 13 -23 -3 0 -24 21 -19 45 -21 73
-7 22 12 26 35 4 26 -10 -4 -15 1 -15 15 0 16 5 18 25 13 19 -5 25 -2 25 10 0
9 -8 16 -21 16 -11 0 -18 4 -14 10 3 5 13 7 23 4 14 -5 14 -4 2 4 -18 13 -29
7 -40 -24 -14 -35 -28 -29 -32 14 -3 33 -6 37 -33 39 -16 1 -24 0 -17 -3z"/>
<path d="M1503 1913 c9 -2 25 -2 35 0 9 3 1 5 -18 5 -19 0 -27 -2 -17 -5z"/>
<path d="M1573 1875 c-1 -25 3 -45 8 -45 5 0 9 10 9 23 0 12 4 29 10 37 6 9 5
17 -3 22 -20 13 -22 10 -24 -37z"/>
<path d="M1494 1875 c-8 -19 3 -35 24 -34 11 0 12 3 5 6 -23 9 -14 32 15 36
25 4 24 4 -6 6 -20 0 -35 -4 -38 -14z"/>
<path d="M1278 1846 c-18 -14 -26 -32 -9 -21 5 3 13 0 17 -6 10 -16 -18 -30
-34 -17 -10 9 -17 7 -29 -5 -9 -9 -13 -20 -9 -24 4 -4 11 -1 16 7 5 8 12 11
16 7 4 -3 1 -14 -6 -22 -10 -11 -10 -19 -2 -27 17 -17 42 -1 42 26 0 29 18 44
26 22 3 -9 10 -13 16 -10 5 3 3 15 -5 28 -8 12 -16 29 -18 38 -3 14 -7 15 -21
4z m-12 -103 c-10 -10 -19 5 -10 18 6 11 8 11 12 0 2 -7 1 -15 -2 -18z"/>
<path d="M1750 1815 c-11 -20 -11 -27 0 -40 7 -8 18 -15 24 -14 7 0 6 2 -1 6
-7 2 -13 14 -13 25 0 15 5 19 20 15 23 -6 26 3 8 21 -17 17 -23 15 -38 -13z"/>
<path d="M1810 1790 c0 -8 -10 -24 -22 -37 -27 -29 -15 -43 15 -16 12 11 28
22 35 24 10 3 8 10 -7 23 -15 14 -21 15 -21 6z"/>
<path d="M1390 1770 c-9 -6 -10 -10 -3 -10 6 0 15 5 18 10 8 12 4 12 -15 0z"/>
<path d="M1637 1769 c7 -7 15 -10 18 -7 3 3 -2 9 -12 12 -14 6 -15 5 -6 -5z"/>
<path d="M1160 1720 c-12 -23 -19 -44 -16 -47 3 -3 11 6 17 20 15 33 32 25 19
-8 -5 -14 -6 -25 -2 -25 4 0 -2 -8 -13 -16 -20 -16 -20 -16 2 -9 18 5 22 3 17
-9 -9 -22 -31 -20 -39 4 -8 26 -21 25 -28 -2 -7 -27 -8 -26 31 -34 29 -6 33
-4 43 25 6 17 18 31 26 31 8 0 11 -4 8 -10 -3 -5 -1 -10 4 -10 6 0 11 9 11 20
0 14 7 20 21 20 11 0 18 4 14 10 -3 5 -12 7 -20 3 -10 -3 -15 1 -16 13 0 17
-1 16 -9 -2 -5 -12 -13 -25 -19 -28 -15 -9 -23 11 -13 31 6 12 4 27 -4 42 -12
24 -12 24 -34 -19z"/>
<path d="M1339 1733 c-13 -16 -12 -17 4 -4 16 13 21 21 13 21 -2 0 -10 -8 -17
-17z"/>
<path d="M1465 1725 c-24 -23 -35 -75 -16 -75 5 0 7 -8 4 -18 -5 -20 21 -47
56 -55 33 -8 73 9 69 30 -2 12 3 17 14 15 20 -3 32 29 23 61 -21 68 -102 91
-150 42z m25 -9 c0 -3 -4 -8 -10 -11 -5 -3 -10 -1 -10 4 0 6 5 11 10 11 6 0
10 -2 10 -4z m100 -6 c0 -5 -4 -10 -10 -10 -5 0 -10 5 -10 10 0 6 5 10 10 10
6 0 10 -4 10 -10z m18 -49 c3 -8 -1 -12 -9 -9 -7 2 -15 10 -17 17 -3 8 1 12 9
9 7 -2 15 -10 17 -17z m-62 -2 c9 -15 -11 -33 -30 -26 -9 4 -13 13 -10 22 7
17 30 20 40 4z m14 -33 c0 -2 -8 -10 -17 -17 -16 -13 -17 -12 -4 4 13 16 21
21 21 13z m-70 -16 c0 -5 -2 -10 -4 -10 -3 0 -8 5 -11 10 -3 6 -1 10 4 10 6 0
11 -4 11 -10z"/>
<path d="M1858 1738 c14 -14 16 -48 3 -48 -5 0 -14 7 -22 16 -12 14 -14 14
-21 -6 -4 -12 -3 -30 2 -41 14 -24 23 -25 15 0 -5 17 -1 19 35 17 22 -1 40 0
40 3 0 11 -46 71 -54 71 -6 0 -5 -5 2 -12z"/>
<path d="M1299 1693 c-13 -16 -12 -17 4 -4 9 7 17 15 17 17 0 8 -8 3 -21 -13z"/>
<path d="M1370 1683 c1 -33 41 -108 78 -145 40 -42 35 -61 -16 -63 -22 -1 -28
-7 -30 -31 -2 -16 -15 -41 -29 -56 -27 -29 -24 -48 9 -48 13 0 18 5 15 13 -9
24 11 42 45 42 27 0 33 4 31 20 -2 12 8 27 22 38 24 17 26 17 50 0 19 -13 24
-24 19 -42 -5 -22 -3 -23 25 -18 32 7 55 -10 49 -37 -2 -8 0 -15 5 -15 45 -4
49 13 13 57 -17 19 -23 36 -19 50 5 19 1 22 -25 22 -16 0 -35 7 -42 15 -10 13
-8 19 15 37 44 34 85 107 84 147 0 33 -1 34 -10 12 -15 -38 -74 -114 -109
-140 l-32 -23 -54 56 c-29 31 -59 72 -65 91 -14 37 -29 47 -29 18z"/>
<path d="M1746 1677 c3 -10 9 -15 12 -12 3 3 0 11 -7 18 -10 9 -11 8 -5 -6z"/>
<path d="M1900 1650 c0 -5 -6 -10 -13 -10 -7 0 -22 -7 -33 -16 -18 -15 -18
-15 11 -9 17 3 38 6 48 6 19 0 19 1 11 23 -7 18 -24 22 -24 6z"/>
<path d="M1931 1567 c-1 -34 -4 -38 -23 -37 -36 3 -48 1 -48 -10 0 -5 11 -10
24 -10 20 0 36 -16 36 -36 0 -10 -29 -3 -33 9 -2 6 -7 9 -11 6 -14 -13 7 -40
28 -37 16 2 21 9 19 31 -3 41 15 32 20 -10 2 -23 4 -12 5 27 0 36 -3 74 -8 85
-7 16 -9 12 -9 -18z"/>
<path d="M1880 1581 c0 -6 -7 -11 -16 -11 -14 0 -14 -3 -4 -15 11 -14 14 -13
25 2 11 15 13 15 24 -3 11 -18 11 -17 9 6 -3 24 -38 43 -38 21z"/>
<path d="M1100 1563 c0 -16 8 -20 40 -21 43 -2 55 12 18 21 -13 2 -31 8 -40
12 -14 5 -18 2 -18 -12z"/>
<path d="M1803 1520 c0 -30 2 -43 4 -27 2 15 2 39 0 55 -2 15 -4 2 -4 -28z"/>
<path d="M1094 1504 c3 -9 7 -30 7 -47 l1 -32 7 30 c7 36 25 40 29 7 3 -23 4
-23 23 -6 20 18 26 54 8 54 -5 0 -8 -4 -4 -9 3 -5 1 -12 -4 -15 -5 -3 -12 1
-15 10 -4 9 -13 14 -21 10 -8 -3 -15 -1 -15 4 0 6 -5 10 -11 10 -6 0 -8 -7 -5
-16z"/>
<path d="M1231 1504 c0 -11 3 -14 6 -6 3 7 2 16 -1 19 -3 4 -6 -2 -5 -13z"/>
<path d="M1855 1400 c-4 -11 -2 -27 4 -34 6 -7 8 -16 4 -19 -3 -4 -1 -7 5 -7
7 0 12 5 12 12 0 9 3 9 12 0 9 -9 9 -15 0 -24 -10 -10 -19 -8 -41 5 -18 10
-32 13 -36 8 -3 -6 8 -17 25 -26 16 -8 30 -20 30 -26 0 -22 21 4 44 54 22 49
26 82 5 44 -14 -24 -31 -21 -27 5 4 30 -28 37 -37 8z m21 -17 c-10 -10 -19 5
-10 18 6 11 8 11 12 0 2 -7 1 -15 -2 -18z"/>
<path d="M1278 1352 c4 -11 7 -12 10 -4 3 10 7 10 20 0 14 -10 15 -10 5 2 -18
20 -43 22 -35 2z"/>
<path d="M1192 1343 c2 -10 14 -23 26 -29 16 -8 20 -14 12 -19 -6 -4 -19 0
-28 8 -17 14 -62 29 -62 20 0 -10 62 -94 67 -89 3 2 -2 15 -11 28 -22 30 -20
45 2 25 44 -40 70 -4 36 48 -19 29 -47 34 -42 8z m33 -13 c3 -5 2 -10 -4 -10
-5 0 -13 5 -16 10 -3 6 -2 10 4 10 5 0 13 -4 16 -10z"/>
<path d="M1300 1310 c0 -5 5 -12 10 -15 18 -11 11 -27 -9 -20 -29 9 -35 -23
-9 -45 25 -20 19 -37 -9 -25 -22 10 -63 13 -63 5 0 -12 70 -73 76 -67 4 4 -4
15 -17 26 -13 11 -21 23 -16 27 4 4 13 2 19 -4 18 -18 48 -15 48 5 0 9 -10 28
-22 41 l-23 24 22 -6 c38 -12 54 36 17 53 -13 6 -24 6 -24 1z"/>
<path d="M1696 1288 c3 -5 10 -6 15 -3 13 9 11 12 -6 12 -8 0 -12 -4 -9 -9z"/>
<path d="M1771 1276 c-10 -12 -9 -14 7 -9 14 3 19 -1 18 -18 -1 -27 27 -37 49
-19 20 17 19 40 -2 40 -14 0 -15 -2 -5 -9 10 -6 10 -10 -2 -21 -13 -10 -17 -9
-22 4 -3 9 -1 23 6 31 10 13 8 15 -13 15 -13 0 -30 -6 -36 -14z"/>
<path d="M1706 1215 c-8 -9 -19 -14 -23 -13 -14 5 -15 -11 -2 -47 11 -29 15
-32 32 -23 18 9 19 11 4 20 -20 11 -22 41 -4 57 18 14 30 2 16 -16 -16 -18 -4
-16 28 4 23 16 24 17 7 24 -29 12 -41 10 -58 -6z"/>
<path d="M1763 1174 c-20 -18 -22 -22 -7 -15 21 10 52 41 41 41 -3 0 -19 -12
-34 -26z"/>
<path d="M1481 1174 c12 -15 11 -16 -8 -10 -12 4 -24 2 -28 -4 -4 -7 2 -14 14
-17 16 -4 19 -9 11 -18 -8 -9 -8 -15 0 -20 5 -3 13 1 16 9 9 23 27 20 19 -3
-3 -11 -1 -22 5 -26 6 -3 10 3 10 16 0 18 3 20 12 11 14 -14 38 -16 38 -4 0 5
-10 14 -22 20 -23 10 -23 11 5 11 15 1 27 6 27 12 0 7 -10 9 -25 7 -21 -4 -23
-3 -14 9 16 19 3 29 -16 13 -12 -10 -19 -10 -27 -2 -18 18 -32 14 -17 -4z"/>
<path d="M1260 1049 c-13 -24 -4 -41 10 -19 10 16 13 40 5 40 -2 0 -9 -9 -15
-21z"/>
<path d="M1760 1039 c0 -8 7 -24 15 -35 11 -15 14 -16 15 -3 0 8 -7 24 -15 35
-11 15 -14 16 -15 3z"/>
<path d="M1586 845 c4 -8 10 -12 15 -9 11 6 2 24 -11 24 -5 0 -7 -7 -4 -15z"/>
<path d="M1127 634 c-15 -15 -6 -34 24 -50 24 -12 29 -18 18 -24 -8 -5 -19 -4
-26 2 -15 13 -28 4 -18 -11 10 -17 62 -13 69 5 7 19 -10 44 -30 44 -7 0 -16 5
-20 11 -5 9 1 10 20 5 21 -5 27 -3 24 6 -5 14 -50 23 -61 12z"/>
<path d="M1210 590 c0 -27 5 -50 10 -50 6 0 10 23 10 50 0 28 -4 50 -10 50 -5
0 -10 -22 -10 -50z"/>
<path d="M1257 633 c-11 -10 -8 -93 2 -93 6 0 11 15 13 33 l3 32 18 -32 c25
-47 37 -41 36 20 -1 46 -2 48 -8 17 l-6 -35 -20 33 c-20 33 -26 37 -38 25z"/>
<path d="M1366 624 c-19 -18 -20 -38 -6 -65 13 -23 52 -25 70 -4 11 13 8 14
-18 9 -34 -7 -47 6 -37 37 6 17 12 20 37 15 26 -5 29 -4 18 9 -16 19 -44 19
-64 -1z"/>
<path d="M1460 590 l0 -50 41 0 c24 0 38 4 34 10 -3 6 -17 10 -31 10 -13 0
-24 5 -24 10 0 6 11 10 25 10 14 0 25 5 25 10 0 6 -11 10 -25 10 -14 0 -25 5
-25 10 0 6 11 10 25 10 14 0 25 5 25 10 0 6 -16 10 -35 10 l-35 0 0 -50z"/>
<path d="M1604 618 c-17 -19 -17 -21 -1 -15 14 5 17 0 17 -28 0 -19 5 -35 10
-35 6 0 10 23 10 50 0 55 -7 61 -36 28z"/>
<path d="M1671 621 c-13 -23 9 -58 29 -46 8 5 11 3 8 -6 -3 -8 -14 -12 -24
-11 -14 3 -16 1 -8 -8 22 -22 49 -7 52 28 5 54 -35 84 -57 43z m39 -17 c0 -17
-22 -14 -28 4 -2 7 3 12 12 12 9 0 16 -7 16 -16z"/>
<path d="M1751 621 c-13 -23 9 -58 29 -46 8 5 11 3 8 -6 -3 -8 -12 -13 -22
-11 -9 2 -16 -2 -16 -8 0 -16 47 -12 54 6 22 58 -26 117 -53 65z m39 -16 c0
-8 -7 -15 -15 -15 -8 0 -15 7 -15 15 0 8 7 15 15 15 8 0 15 -7 15 -15z"/>
<path d="M1829 624 c-16 -19 0 -50 25 -48 10 1 15 -3 13 -10 -2 -6 -11 -10
-21 -8 -9 2 -16 -2 -16 -8 0 -14 33 -13 48 2 25 25 8 88 -24 88 -6 0 -17 -7
-25 -16z m41 -19 c0 -8 -7 -15 -15 -15 -8 0 -15 7 -15 15 0 8 7 15 15 15 8 0
15 -7 15 -15z"/>
<path d="M437 2383 c-17 -16 -5 -53 24 -78 40 -33 73 -30 77 7 5 46 -72 100
-101 71z"/>
<path d="M335 2236 c-17 -12 -18 -17 -7 -40 13 -30 72 -62 97 -52 28 10 15 57
-24 83 -40 27 -41 27 -66 9z"/>
<path d="M2685 2189 c-4 -6 -5 -13 -2 -16 7 -7 27 6 27 18 0 12 -17 12 -25 -2z"/>
<path d="M2593 2163 c-18 -7 -16 -43 2 -43 16 0 38 34 28 44 -7 7 -12 7 -30
-1z"/>
<path d="M2708 1174 c-16 -15 -7 -44 16 -59 31 -20 85 -23 97 -4 12 19 11 22
-4 43 -14 19 -96 34 -109 20z"/>
<path d="M195 1110 c-9 -15 4 -50 20 -50 19 0 27 17 20 40 -7 21 -30 27 -40
10z"/>
<path d="M305 950 c-18 -19 -18 -20 3 -20 24 0 38 18 25 31 -6 6 -16 2 -28
-11z"/>
<path d="M2570 875 c-28 -34 59 -103 97 -79 28 17 26 32 -5 64 -33 33 -72 39
-92 15z"/>
<path d="M473 707 c-25 -32 -25 -37 1 -25 27 12 33 23 17 32 -5 3 -13 0 -18
-7z"/>
<path d="M550 565 c-10 -13 -9 -19 5 -35 17 -19 19 -19 36 -4 20 18 18 29 -11
44 -13 7 -21 6 -30 -5z"/>
<path d="M1147 273 c-14 -13 -7 -53 8 -53 12 0 14 7 9 28 -8 33 -9 34 -17 25z"/>
<path d="M1280 256 c0 -22 4 -26 31 -26 26 0 30 3 27 23 -2 16 -11 23 -30 25
-24 3 -28 0 -28 -22z"/>
<path d="M1460 221 c0 -5 -3 -16 -6 -25 -4 -12 0 -16 16 -16 16 0 20 4 16 16
-3 9 -6 20 -6 25 0 5 -4 9 -10 9 -5 0 -10 -4 -10 -9z"/>
<path d="M1780 246 c0 -8 -3 -22 -6 -30 -5 -12 -2 -15 10 -10 18 7 22 39 6 49
-5 3 -10 0 -10 -9z"/>
</g>
</svg>
